<svg width="580" height="94" viewBox="0 0 580 94" fill="none" xmlns="http://www.w3.org/2000/svg">
<g clip-path="url(#clip0_301_46)">
<path d="M387 72.1H413.3V74H385V22.8H386.9V72.1H387ZM462.1 58.7H437L431.4 74H429.3L448.5 22.8H450.8L469.9 74H467.8L462.1 58.7ZM437.8 56.8H461.5L449.7 25.1L437.8 56.8ZM490.4 74V22.8H503.9C509.4 22.8 513.6 23.9 516.4 26.2C519.2 28.4 520.7 31.7 520.7 35.9C520.7 39 519.9 41.6 518.3 43.6C516.7 45.6 514.5 46.9 511.7 47.5C514.9 47.9 517.6 49.3 519.8 51.7C522 54.1 523 56.8 523 59.9C523 64.3 521.6 67.7 518.7 70.2C515.9 72.7 512 74 506.9 74H490.4ZM492.3 48.7V72.1H507.1C511.4 72.1 514.8 71 517.3 68.9C519.8 66.7 521 63.8 521 60C521 56.8 519.8 54.1 517.4 52C515 49.9 511.8 48.8 507.8 48.7H492.3V48.7ZM492.3 46.8H504.6C509.3 46.8 512.8 45.9 515.1 44.1C517.5 42.3 518.7 39.5 518.7 35.7C518.7 28.4 513.9 24.7 504.3 24.6H492.3V46.8V46.8ZM576.8 61.7C576.8 59.5 576.3 57.7 575.3 56.2C574.3 54.7 572.7 53.3 570.5 52.2C568.3 51 565 49.8 560.6 48.6C556.2 47.4 552.8 46.2 550.6 44.9C548.4 43.7 546.8 42.2 545.7 40.6C544.7 39 544.2 37 544.2 34.6C544.2 30.9 545.8 27.9 548.9 25.6C552 23.3 556.1 22.1 561.2 22.1C564.5 22.1 567.4 22.7 570 24C572.6 25.3 574.7 27.1 576.1 29.4C577.5 31.7 578.2 34.3 578.2 37.2H576.3C576.3 33.4 574.9 30.2 572.1 27.7C569.3 25.2 565.6 23.9 561.2 23.9C556.7 23.9 553.1 24.9 550.3 26.9C547.5 28.9 546.2 31.4 546.2 34.4C546.2 37.5 547.4 39.9 549.8 41.8C552.2 43.7 556.2 45.3 561.8 46.8C567.4 48.2 571.4 49.9 574 51.8C577.3 54.2 578.9 57.4 578.9 61.5C578.9 64.1 578.2 66.4 576.7 68.4C575.2 70.4 573.2 71.9 570.5 73C567.8 74.1 564.8 74.6 561.5 74.6C557.8 74.6 554.5 74 551.5 72.8C548.5 71.6 546.3 69.8 544.8 67.5C543.3 65.2 542.6 62.5 542.6 59.4H544.5C544.5 63.6 546.1 66.9 549.2 69.2C552.3 71.5 556.4 72.7 561.5 72.7C566 72.7 569.7 71.7 572.6 69.6C575.3 67.7 576.8 65 576.8 61.7Z" fill="#A5A6F6"/>
<path d="M387 72.1H386V73.1H387V72.1ZM413.2 72.1H414.2V71.1H413.2V72.1ZM413.2 74V75H414.2V74H413.2ZM385 74H384V75H385V74ZM385 22.8V21.8H384V22.8H385ZM387 22.8H388V21.8H387V22.8ZM387 73.1H413.3V71.1H387V73.1ZM412.2 72.1V74H414.2V72.1H412.2ZM413.2 73H385V75H413.2V73ZM386 74V22.8H384V74H386ZM385 23.8H386.9V21.8H385V23.8ZM386 22.8V72.1H388V22.8H386ZM462.1 58.7L463 58.3L462.8 57.7H462.1V58.7ZM437.1 58.7V57.7H436.4L436.2 58.4L437.1 58.7ZM431.4 74V75H432.1L432.3 74.3L431.4 74ZM429.3 74L428.4 73.6L427.9 75H429.3V74ZM448.5 22.8V21.8H447.8L447.6 22.4L448.5 22.8ZM450.8 22.8L451.7 22.4L451.5 21.8H450.8V22.8ZM469.9 74V75H471.3L470.8 73.6L469.9 74ZM467.9 74L467 74.4L467.2 75H467.9V74ZM437.8 56.8L436.9 56.4L436.4 57.8H437.8V56.8ZM461.4 56.8V57.8H462.8L462.3 56.5L461.4 56.8ZM449.6 25.1L450.5 24.8L449.6 22.3L448.7 24.8L449.6 25.1ZM462.1 57.7H449.55H437V59.7H449.55H462.1V57.7ZM436.1 58.4L430.4 73.7L432.3 74.4L438 59.1L436.1 58.4ZM431.4 73H429.3V75H431.4V73ZM430.2 74.4L449.4 23.2L447.5 22.5L428.3 73.7L430.2 74.4ZM448.5 23.8H450.8V21.8H448.5V23.8ZM449.8 23.2L469 74.4L470.9 73.7L451.7 22.5L449.8 23.2ZM469.9 73H467.8V75H469.9V73ZM468.8 73.6L463.1 58.3L461.2 59L466.9 74.3L468.8 73.6ZM437.8 57.8H449.65H461.5V55.8H437.8V57.8ZM462.4 56.5L450.6 24.8L448.7 25.5L460.5 57.2L462.4 56.5ZM448.7 24.7L436.9 56.4L438.8 57.1L450.6 25.4L448.7 24.7ZM490.4 74H489.4V75H490.4V74ZM490.4 22.8V21.8H489.4V22.8H490.4ZM511.6 47.5L511.4 46.5L511.5 48.5L511.6 47.5ZM492.3 48.7V47.7H491.3V48.7H492.3ZM492.3 72.1H491.3V73.1H492.3V72.1ZM492.3 46.8H491.3V47.8H492.3V46.8ZM492.3 24.7V23.7H491.3V24.7H492.3ZM491.4 74V22.8H489.4V74H491.4ZM490.4 23.8H503.9V21.8H490.4V23.8ZM503.9 23.8C509.3 23.8 513.2 24.9 515.8 27L517 25.4C513.9 23 509.5 21.8 503.9 21.8V23.8ZM515.8 27C518.3 29 519.7 31.9 519.7 36H521.7C521.7 31.5 520.2 27.9 517.1 25.5L515.8 27ZM519.6 35.9C519.6 38.8 518.9 41.2 517.5 43L519.1 44.2C520.8 42 521.7 39.2 521.7 35.9H519.6ZM517.5 43C516.1 44.8 514.1 46 511.5 46.5L511.9 48.5C515 47.9 517.4 46.5 519.1 44.2L517.5 43ZM511.5 48.5C514.5 48.9 517 50.2 519 52.4L520.5 51.1C518.2 48.5 515.3 47 511.8 46.6L511.5 48.5ZM519 52.4C521 54.6 522 57.1 522 59.9H524C524 56.6 522.8 53.6 520.5 51.1L519 52.4ZM522 59.9C522 64 520.7 67.2 518.1 69.5L519.4 71C522.5 68.3 524 64.5 524 59.9H522ZM518 69.5C515.4 71.8 511.8 73 506.9 73V75C512.1 75 516.3 73.7 519.3 71L518 69.5ZM506.9 73H490.4V75H506.9V73ZM491.3 48.7V72.1H493.3V48.7H491.3ZM492.3 73.1H507.1V71.1H492.3V73.1ZM507.1 73.1C511.6 73.1 515.3 72 517.9 69.7L516.6 68.2C514.4 70.1 511.2 71.2 507.1 71.2V73.1ZM518 69.7C520.7 67.3 522.1 64.1 522.1 60H520.1C520.1 63.6 518.9 66.2 516.7 68.2L518 69.7ZM522.1 60C522.1 56.5 520.8 53.5 518.2 51.3L516.9 52.8C519.1 54.7 520.1 57.1 520.1 60H522.1ZM518.1 51.2C515.5 48.9 512 47.8 507.9 47.7V49.7C511.7 49.8 514.7 50.8 516.9 52.7L518.1 51.2ZM507.9 47.7H492.4V49.7H507.9V47.7ZM492.3 47.8H504.6V45.8H492.3V47.8ZM504.6 47.8C509.4 47.8 513.1 46.9 515.7 44.9L514.5 43.3C512.4 44.9 509.1 45.8 504.6 45.8V47.8ZM515.8 44.9C518.5 42.9 519.7 39.7 519.7 35.7H517.7C517.7 39.3 516.6 41.7 514.5 43.3L515.8 44.9ZM519.7 35.8C519.7 31.9 518.4 28.9 515.7 26.8C513.1 24.8 509.2 23.8 504.3 23.7V25.7C509 25.8 512.3 26.7 514.5 28.3C516.6 29.9 517.7 32.3 517.7 35.7H519.7V35.8ZM504.3 23.7H492.3V25.7H504.3V23.7ZM491.3 24.7V46.8H493.3V24.7H491.3ZM578.2 37.2V38.2H579.2V37.2H578.2ZM576.3 37.2H575.3V38.2H576.3V37.2ZM542.5 59.6V58.6H541.5V59.6H542.5ZM544.4 59.6H545.4V58.6H544.4V59.6ZM577.8 61.7C577.8 59.4 577.2 57.3 576.1 55.6L574.5 56.7C575.4 58 575.9 59.6 575.9 61.7H577.8ZM576.1 55.7C575 54 573.2 52.6 570.9 51.4L570 53.2C572.1 54.3 573.6 55.5 574.4 56.9L576.1 55.7ZM570.9 51.3C568.6 50.1 565.2 48.9 560.8 47.6L560.3 49.5C564.7 50.7 567.9 51.9 570 53L570.9 51.3ZM560.8 47.7C556.4 46.5 553.2 45.3 551 44.1L550 45.8C552.3 47.1 555.8 48.4 560.2 49.6L560.8 47.7ZM551 44.1C548.9 42.9 547.4 41.6 546.5 40.1L544.8 41.2C545.9 43 547.7 44.6 550 45.9L551 44.1ZM546.5 40.1C545.6 38.6 545.1 36.9 545.1 34.7H543.1C543.1 37.2 543.6 39.4 544.8 41.2L546.5 40.1ZM545.1 34.6C545.1 31.2 546.5 28.5 549.4 26.4L548.2 24.8C544.8 27.3 543.1 30.6 543.1 34.6H545.1ZM549.4 26.4C552.3 24.2 556.2 23.1 561.1 23.1V21.1C555.9 21.1 551.6 22.3 548.2 24.8L549.4 26.4ZM561.1 23.1C564.2 23.1 567 23.7 569.5 24.9L570.4 23.1C567.6 21.7 564.5 21.1 561.1 21.1V23.1ZM569.5 24.9C572 26.1 573.8 27.8 575.2 29.9L576.9 28.9C575.4 26.4 573.2 24.5 570.4 23.1L569.5 24.9ZM575.2 30C576.5 32.1 577.2 34.5 577.2 37.3H579.2C579.2 34.2 578.4 31.4 576.9 29L575.2 30ZM578.2 36.2H576.3V38.2H578.2V36.2ZM577.3 37.2C577.3 33.1 575.8 29.7 572.7 27L571.4 28.5C574 30.8 575.3 33.7 575.3 37.2H577.3ZM572.7 27C569.7 24.3 565.8 23 561.1 23V25C565.4 25 568.8 26.2 571.4 28.5L572.7 27ZM561.1 23C556.5 23 552.6 24 549.6 26.2L550.8 27.8C553.4 25.9 556.8 25 561.1 25V23ZM549.6 26.2C546.6 28.4 545 31.1 545 34.5H547C547 31.8 548.2 29.6 550.7 27.8L549.6 26.2ZM545 34.6C545 38 546.3 40.7 549 42.8L550.2 41.2C548 39.5 547 37.3 547 34.6H545ZM549 42.8C551.6 44.8 555.7 46.5 561.3 48L561.8 46.1C556.3 44.7 552.5 43 550.2 41.3L549 42.8ZM561.4 47.9C566.9 49.3 570.8 50.9 573.3 52.7L574.5 51.1C571.8 49.1 567.6 47.4 562 45.9L561.4 47.9ZM573.2 52.8C576.2 55 577.7 58 577.7 61.7H579.7C579.7 57.3 577.9 53.8 574.4 51.2L573.2 52.8ZM577.7 61.7C577.7 64.1 577 66.2 575.7 68L577.3 69.2C578.9 67 579.7 64.5 579.7 61.8H577.7V61.7ZM575.7 67.9C574.4 69.7 572.5 71.1 569.9 72.1L570.6 74C573.4 72.9 575.6 71.2 577.2 69.1L575.7 67.9ZM570 72.2C567.5 73.2 564.6 73.7 561.4 73.7V75.7C564.8 75.7 568 75.1 570.8 74L570 72.2ZM561.4 73.7C557.8 73.7 554.6 73.1 551.8 71.9L551 73.7C554.1 75 557.6 75.6 561.4 75.6V73.7ZM551.8 72C549 70.8 546.9 69.2 545.6 67.1L543.9 68.2C545.5 70.7 547.9 72.5 551 73.8L551.8 72ZM545.5 67.1C544.1 65 543.4 62.5 543.4 59.6H541.4C541.4 62.9 542.2 65.7 543.8 68.2L545.5 67.1ZM542.5 60.6H544.4V58.6H542.5V60.6ZM543.4 59.6C543.4 64.1 545.1 67.7 548.5 70.2L549.7 68.6C546.8 66.5 545.4 63.5 545.4 59.6H543.4ZM548.5 70.1C551.9 72.6 556.2 73.8 561.4 73.8V71.8C556.5 71.8 552.6 70.7 549.7 68.5L548.5 70.1ZM561.4 73.8C566 73.8 569.9 72.7 573 70.6L571.9 69C569.2 70.9 565.7 71.9 561.4 71.9V73.8ZM573 70.6C576.1 68.4 577.8 65.4 577.8 61.8H575.8C575.8 64.7 574.5 67.1 571.9 69L573 70.6Z" fill="#A5A6F6"/>
<path d="M166 23H195.6V25.9H169.1V47.1H192.2V50H169.1V71.6H196.3V74.5H166V23Z" fill="white"/>
<path d="M247.2 25.9H229.7V74.5H226.6V25.9H209.1V23H247.2V25.9Z" fill="white"/>
<path d="M264.6 23H267.7V47.1H300.4V23H303.5V74.4H300.4V49.9H267.7V74.4H264.6V23Z" fill="white"/>
<path d="M355.5 59.1H330.1L324.2 74.4H321L340.9 23H344.7L364.8 74.4H361.5L355.5 59.1ZM354.3 56.3L342.7 26.5L331.2 56.3H354.3Z" fill="white"/>
<path d="M102.5 59.4L27.7 24.5V0L102.6 34.9V59.4H102.5Z" fill="#D2D5D8"/>
<path d="M27.7 93.6L102.6 59.1V35L27.7 69.4V93.6Z" fill="#D2D5D8"/>
<path d="M122.3 24.4H27.7V0H131L122.3 24.4Z" fill="white"/>
<path d="M102.5 59.4H8.7L0 34.2H102.5V59.4Z" fill="white"/>
<path d="M122.3 93.6H27.7V69.2H131L122.3 93.6Z" fill="white"/>
</g>
<defs>
<clipPath id="clip0_301_46">
<rect width="580" height="94" fill="white"/>
</clipPath>
</defs>
</svg>
