<svg width="581" height="94" viewBox="0 0 581 94" fill="none" xmlns="http://www.w3.org/2000/svg">
<mask id="path-1-outside-1_301_35" maskUnits="userSpaceOnUse" x="383" y="19.1" width="198" height="58" fill="black">
<rect fill="white" x="383" y="19.1" width="198" height="58"/>
<path d="M387 72.1H386V73.1H387V72.1ZM413.2 72.1H414.2V71.1H413.2V72.1ZM413.2 74V75H414.2V74H413.2ZM385 74H384V75H385V74ZM385 22.8V21.8H384V22.8H385ZM387 22.8H388V21.8H387V22.8ZM387 73.1H413.3V71.1H387V73.1ZM412.2 72.1V74H414.2V72.1H412.2ZM413.2 73H385V75H413.2V73ZM386 74V22.8H384V74H386ZM385 23.8H386.9V21.8H385V23.8ZM386 22.8V72.1H388V22.8H386ZM462.1 58.7L463 58.3L462.8 57.7H462.1V58.7ZM437.1 58.7V57.7H436.4L436.2 58.4L437.1 58.7ZM431.4 74V75H432.1L432.3 74.3L431.4 74ZM429.3 74L428.4 73.6L427.9 75H429.3V74ZM448.5 22.8V21.8H447.8L447.6 22.4L448.5 22.8ZM450.8 22.8L451.7 22.4L451.5 21.8H450.8V22.8ZM469.9 74V75H471.3L470.8 73.6L469.9 74ZM467.9 74L467 74.4L467.2 75H467.9V74ZM437.8 56.8L436.9 56.4L436.4 57.8H437.8V56.8ZM461.4 56.8V57.8H462.8L462.3 56.5L461.4 56.8ZM449.6 25.1L450.5 24.8L449.6 22.3L448.7 24.8L449.6 25.1ZM462.1 57.7H449.55H437V59.7H449.55H462.1V57.7ZM436.1 58.4L430.4 73.7L432.3 74.4L438 59.1L436.1 58.4ZM431.4 73H429.3V75H431.4V73ZM430.2 74.4L449.4 23.2L447.5 22.5L428.3 73.7L430.2 74.4ZM448.5 23.8H450.8V21.8H448.5V23.8ZM449.8 23.2L469 74.4L470.9 73.7L451.7 22.5L449.8 23.2ZM469.9 73H467.8V75H469.9V73ZM468.8 73.6L463.1 58.3L461.2 59L466.9 74.3L468.8 73.6ZM437.8 57.8H449.65H461.5V55.8H437.8V57.8ZM462.4 56.5L450.6 24.8L448.7 25.5L460.5 57.2L462.4 56.5ZM448.7 24.7L436.9 56.4L438.8 57.1L450.6 25.4L448.7 24.7ZM490.4 74H489.4V75H490.4V74ZM490.4 22.8V21.8H489.4V22.8H490.4ZM511.6 47.5L511.4 46.5L511.5 48.5L511.6 47.5ZM492.3 48.7V47.7H491.3V48.7H492.3ZM492.3 72.1H491.3V73.1H492.3V72.1ZM492.3 46.8H491.3V47.8H492.3V46.8ZM492.3 24.7V23.7H491.3V24.7H492.3ZM491.4 74V22.8H489.4V74H491.4ZM490.4 23.8H503.9V21.8H490.4V23.8ZM503.9 23.8C509.3 23.8 513.2 24.9 515.8 27L517 25.4C513.9 23 509.5 21.8 503.9 21.8V23.8ZM515.8 27C518.3 29 519.7 31.9 519.7 36H521.7C521.7 31.5 520.2 27.9 517.1 25.5L515.8 27ZM519.6 35.9C519.6 38.8 518.9 41.2 517.5 43L519.1 44.2C520.8 42 521.7 39.2 521.7 35.9H519.6ZM517.5 43C516.1 44.8 514.1 46 511.5 46.5L511.9 48.5C515 47.9 517.4 46.5 519.1 44.2L517.5 43ZM511.5 48.5C514.5 48.9 517 50.2 519 52.4L520.5 51.1C518.2 48.5 515.3 47 511.8 46.6L511.5 48.5ZM519 52.4C521 54.6 522 57.1 522 59.9H524C524 56.6 522.8 53.6 520.5 51.1L519 52.4ZM522 59.9C522 64 520.7 67.2 518.1 69.5L519.4 71C522.5 68.3 524 64.5 524 59.9H522ZM518 69.5C515.4 71.8 511.8 73 506.9 73V75C512.1 75 516.3 73.7 519.3 71L518 69.5ZM506.9 73H490.4V75H506.9V73ZM491.3 48.7V72.1H493.3V48.7H491.3ZM492.3 73.1H507.1V71.1H492.3V73.1ZM507.1 73.1C511.6 73.1 515.3 72 517.9 69.7L516.6 68.2C514.4 70.1 511.2 71.2 507.1 71.2V73.1ZM518 69.7C520.7 67.3 522.1 64.1 522.1 60H520.1C520.1 63.6 518.9 66.2 516.7 68.2L518 69.7ZM522.1 60C522.1 56.5 520.8 53.5 518.2 51.3L516.9 52.8C519.1 54.7 520.1 57.1 520.1 60H522.1ZM518.1 51.2C515.5 48.9 512 47.8 507.9 47.7V49.7C511.7 49.8 514.7 50.8 516.9 52.7L518.1 51.2ZM507.9 47.7H492.4V49.7H507.9V47.7ZM492.3 47.8H504.6V45.8H492.3V47.8ZM504.6 47.8C509.4 47.8 513.1 46.9 515.7 44.9L514.5 43.3C512.4 44.9 509.1 45.8 504.6 45.8V47.8ZM515.8 44.9C518.5 42.9 519.7 39.7 519.7 35.7H517.7C517.7 39.3 516.6 41.7 514.5 43.3L515.8 44.9ZM519.7 35.8C519.7 31.9 518.4 28.9 515.7 26.8C513.1 24.8 509.2 23.8 504.3 23.7V25.7C509 25.8 512.3 26.7 514.5 28.3C516.6 29.9 517.7 32.3 517.7 35.7H519.7V35.8ZM504.3 23.7H492.3V25.7H504.3V23.7ZM491.3 24.7V46.8H493.3V24.7H491.3ZM578.2 37.2V38.2H579.2V37.2H578.2ZM576.3 37.2H575.3V38.2H576.3V37.2ZM542.5 59.6V58.6H541.5V59.6H542.5ZM544.4 59.6H545.4V58.6H544.4V59.6ZM577.8 61.7C577.8 59.4 577.2 57.3 576.1 55.6L574.5 56.7C575.4 58 575.9 59.6 575.9 61.7H577.8ZM576.1 55.7C575 54 573.2 52.6 570.9 51.4L570 53.2C572.1 54.3 573.6 55.5 574.4 56.9L576.1 55.7ZM570.9 51.3C568.6 50.1 565.2 48.9 560.8 47.6L560.3 49.5C564.7 50.7 567.9 51.9 570 53L570.9 51.3ZM560.8 47.7C556.4 46.5 553.2 45.3 551 44.1L550 45.8C552.3 47.1 555.8 48.4 560.2 49.6L560.8 47.7ZM551 44.1C548.9 42.9 547.4 41.6 546.5 40.1L544.8 41.2C545.9 43 547.7 44.6 550 45.9L551 44.1ZM546.5 40.1C545.6 38.6 545.1 36.9 545.1 34.7H543.1C543.1 37.2 543.6 39.4 544.8 41.2L546.5 40.1ZM545.1 34.6C545.1 31.2 546.5 28.5 549.4 26.4L548.2 24.8C544.8 27.3 543.1 30.6 543.1 34.6H545.1ZM549.4 26.4C552.3 24.2 556.2 23.1 561.1 23.1V21.1C555.9 21.1 551.6 22.3 548.2 24.8L549.4 26.4ZM561.1 23.1C564.2 23.1 567 23.7 569.5 24.9L570.4 23.1C567.6 21.7 564.5 21.1 561.1 21.1V23.1ZM569.5 24.9C572 26.1 573.8 27.8 575.2 29.9L576.9 28.9C575.4 26.4 573.2 24.5 570.4 23.1L569.5 24.9ZM575.2 30C576.5 32.1 577.2 34.5 577.2 37.3H579.2C579.2 34.2 578.4 31.4 576.9 29L575.2 30ZM578.2 36.2H576.3V38.2H578.2V36.2ZM577.3 37.2C577.3 33.1 575.8 29.7 572.7 27L571.4 28.5C574 30.8 575.3 33.7 575.3 37.2H577.3ZM572.7 27C569.7 24.3 565.8 23 561.1 23V25C565.4 25 568.8 26.2 571.4 28.5L572.7 27ZM561.1 23C556.5 23 552.6 24 549.6 26.2L550.8 27.8C553.4 25.9 556.8 25 561.1 25V23ZM549.6 26.2C546.6 28.4 545 31.1 545 34.5H547C547 31.8 548.2 29.6 550.7 27.8L549.6 26.2ZM545 34.6C545 38 546.3 40.7 549 42.8L550.2 41.2C548 39.5 547 37.3 547 34.6H545ZM549 42.8C551.6 44.8 555.7 46.5 561.3 48L561.8 46.1C556.3 44.7 552.5 43 550.2 41.3L549 42.8ZM561.4 47.9C566.9 49.3 570.8 50.9 573.3 52.7L574.5 51.1C571.8 49.1 567.6 47.4 562 45.9L561.4 47.9ZM573.2 52.8C576.2 55 577.7 58 577.7 61.7H579.7C579.7 57.3 577.9 53.8 574.4 51.2L573.2 52.8ZM577.7 61.7C577.7 64.1 577 66.2 575.7 68L577.3 69.2C578.9 67 579.7 64.5 579.7 61.8H577.7V61.7ZM575.7 67.9C574.4 69.7 572.5 71.1 569.9 72.1L570.6 74C573.4 72.9 575.6 71.2 577.2 69.1L575.7 67.9ZM570 72.2C567.5 73.2 564.6 73.7 561.4 73.7V75.7C564.8 75.7 568 75.1 570.8 74L570 72.2ZM561.4 73.7C557.8 73.7 554.6 73.1 551.8 71.9L551 73.7C554.1 75 557.6 75.6 561.4 75.6V73.7ZM551.8 72C549 70.8 546.9 69.2 545.6 67.1L543.9 68.2C545.5 70.7 547.9 72.5 551 73.8L551.8 72ZM545.5 67.1C544.1 65 543.4 62.5 543.4 59.6H541.4C541.4 62.9 542.2 65.7 543.8 68.2L545.5 67.1ZM542.5 60.6H544.4V58.6H542.5V60.6ZM543.4 59.6C543.4 64.1 545.1 67.7 548.5 70.2L549.7 68.6C546.8 66.5 545.4 63.5 545.4 59.6H543.4ZM548.5 70.1C551.9 72.6 556.2 73.8 561.4 73.8V71.8C556.5 71.8 552.6 70.7 549.7 68.5L548.5 70.1ZM561.4 73.8C566 73.8 569.9 72.7 573 70.6L571.9 69C569.2 70.9 565.7 71.9 561.4 71.9V73.8ZM573 70.6C576.1 68.4 577.8 65.4 577.8 61.8H575.8C575.8 64.7 574.5 67.1 571.9 69L573 70.6Z"/>
</mask>
<path d="M387 72.1H386V73.1H387V72.1ZM413.2 72.1H414.2V71.1H413.2V72.1ZM413.2 74V75H414.2V74H413.2ZM385 74H384V75H385V74ZM385 22.8V21.8H384V22.8H385ZM387 22.8H388V21.8H387V22.8ZM387 73.1H413.3V71.1H387V73.1ZM412.2 72.1V74H414.2V72.1H412.2ZM413.2 73H385V75H413.2V73ZM386 74V22.8H384V74H386ZM385 23.8H386.9V21.8H385V23.8ZM386 22.8V72.1H388V22.8H386ZM462.1 58.7L463 58.3L462.8 57.7H462.1V58.7ZM437.1 58.7V57.7H436.4L436.2 58.4L437.1 58.7ZM431.4 74V75H432.1L432.3 74.3L431.4 74ZM429.3 74L428.4 73.6L427.9 75H429.3V74ZM448.5 22.8V21.8H447.8L447.6 22.4L448.5 22.8ZM450.8 22.8L451.7 22.4L451.5 21.8H450.8V22.8ZM469.9 74V75H471.3L470.8 73.6L469.9 74ZM467.9 74L467 74.4L467.2 75H467.9V74ZM437.8 56.8L436.9 56.4L436.4 57.8H437.8V56.8ZM461.4 56.8V57.8H462.8L462.3 56.5L461.4 56.8ZM449.6 25.1L450.5 24.8L449.6 22.3L448.7 24.8L449.6 25.1ZM462.1 57.7H449.55H437V59.7H449.55H462.1V57.7ZM436.1 58.4L430.4 73.7L432.3 74.4L438 59.1L436.1 58.4ZM431.4 73H429.3V75H431.4V73ZM430.2 74.4L449.4 23.2L447.5 22.5L428.3 73.7L430.2 74.4ZM448.5 23.8H450.8V21.8H448.5V23.8ZM449.8 23.2L469 74.4L470.9 73.7L451.7 22.5L449.8 23.2ZM469.9 73H467.8V75H469.9V73ZM468.8 73.6L463.1 58.3L461.2 59L466.9 74.3L468.8 73.6ZM437.8 57.8H449.65H461.5V55.8H437.8V57.8ZM462.4 56.5L450.6 24.8L448.7 25.5L460.5 57.2L462.4 56.5ZM448.7 24.7L436.9 56.4L438.8 57.1L450.6 25.4L448.7 24.7ZM490.4 74H489.4V75H490.4V74ZM490.4 22.8V21.8H489.4V22.8H490.4ZM511.6 47.5L511.4 46.5L511.5 48.5L511.6 47.5ZM492.3 48.7V47.7H491.3V48.7H492.3ZM492.3 72.1H491.3V73.1H492.3V72.1ZM492.3 46.8H491.3V47.8H492.3V46.8ZM492.3 24.7V23.7H491.3V24.7H492.3ZM491.4 74V22.8H489.4V74H491.4ZM490.4 23.8H503.9V21.8H490.4V23.8ZM503.9 23.8C509.3 23.8 513.2 24.9 515.8 27L517 25.4C513.9 23 509.5 21.8 503.9 21.8V23.8ZM515.8 27C518.3 29 519.7 31.9 519.7 36H521.7C521.7 31.5 520.2 27.9 517.1 25.5L515.8 27ZM519.6 35.9C519.6 38.8 518.9 41.2 517.5 43L519.1 44.2C520.8 42 521.7 39.2 521.7 35.9H519.6ZM517.5 43C516.1 44.8 514.1 46 511.5 46.5L511.9 48.5C515 47.9 517.4 46.5 519.1 44.2L517.5 43ZM511.5 48.5C514.5 48.9 517 50.2 519 52.4L520.5 51.1C518.2 48.5 515.3 47 511.8 46.6L511.5 48.5ZM519 52.4C521 54.6 522 57.1 522 59.9H524C524 56.6 522.8 53.6 520.5 51.1L519 52.4ZM522 59.9C522 64 520.7 67.2 518.1 69.5L519.4 71C522.5 68.3 524 64.5 524 59.9H522ZM518 69.5C515.4 71.8 511.8 73 506.9 73V75C512.1 75 516.3 73.7 519.3 71L518 69.5ZM506.9 73H490.4V75H506.9V73ZM491.3 48.7V72.1H493.3V48.7H491.3ZM492.3 73.1H507.1V71.1H492.3V73.1ZM507.1 73.1C511.6 73.1 515.3 72 517.9 69.7L516.6 68.2C514.4 70.1 511.2 71.2 507.1 71.2V73.1ZM518 69.7C520.7 67.3 522.1 64.1 522.1 60H520.1C520.1 63.6 518.9 66.2 516.7 68.2L518 69.7ZM522.1 60C522.1 56.5 520.8 53.5 518.2 51.3L516.9 52.8C519.1 54.7 520.1 57.1 520.1 60H522.1ZM518.1 51.2C515.5 48.9 512 47.8 507.9 47.7V49.7C511.7 49.8 514.7 50.8 516.9 52.7L518.1 51.2ZM507.9 47.7H492.4V49.7H507.9V47.7ZM492.3 47.8H504.6V45.8H492.3V47.8ZM504.6 47.8C509.4 47.8 513.1 46.9 515.7 44.9L514.5 43.3C512.4 44.9 509.1 45.8 504.6 45.8V47.8ZM515.8 44.9C518.5 42.9 519.7 39.7 519.7 35.7H517.7C517.7 39.3 516.6 41.7 514.5 43.3L515.8 44.9ZM519.7 35.8C519.7 31.9 518.4 28.9 515.7 26.8C513.1 24.8 509.2 23.8 504.3 23.7V25.7C509 25.8 512.3 26.7 514.5 28.3C516.6 29.9 517.7 32.3 517.7 35.7H519.7V35.8ZM504.3 23.7H492.3V25.7H504.3V23.7ZM491.3 24.7V46.8H493.3V24.7H491.3ZM578.2 37.2V38.2H579.2V37.2H578.2ZM576.3 37.2H575.3V38.2H576.3V37.2ZM542.5 59.6V58.6H541.5V59.6H542.5ZM544.4 59.6H545.4V58.6H544.4V59.6ZM577.8 61.7C577.8 59.4 577.2 57.3 576.1 55.6L574.5 56.7C575.4 58 575.9 59.6 575.9 61.7H577.8ZM576.1 55.7C575 54 573.2 52.6 570.9 51.4L570 53.2C572.1 54.3 573.6 55.5 574.4 56.9L576.1 55.7ZM570.9 51.3C568.6 50.1 565.2 48.9 560.8 47.6L560.3 49.5C564.7 50.7 567.9 51.9 570 53L570.9 51.3ZM560.8 47.7C556.4 46.5 553.2 45.3 551 44.1L550 45.8C552.3 47.1 555.8 48.4 560.2 49.6L560.8 47.7ZM551 44.1C548.9 42.9 547.4 41.6 546.5 40.1L544.8 41.2C545.9 43 547.7 44.6 550 45.9L551 44.1ZM546.5 40.1C545.6 38.6 545.1 36.9 545.1 34.7H543.1C543.1 37.2 543.6 39.4 544.8 41.2L546.5 40.1ZM545.1 34.6C545.1 31.2 546.5 28.5 549.4 26.4L548.2 24.8C544.8 27.3 543.1 30.6 543.1 34.6H545.1ZM549.4 26.4C552.3 24.2 556.2 23.1 561.1 23.1V21.1C555.9 21.1 551.6 22.3 548.2 24.8L549.4 26.4ZM561.1 23.1C564.2 23.1 567 23.7 569.5 24.9L570.4 23.1C567.6 21.7 564.5 21.1 561.1 21.1V23.1ZM569.5 24.9C572 26.1 573.8 27.8 575.2 29.9L576.9 28.9C575.4 26.4 573.2 24.5 570.4 23.1L569.5 24.9ZM575.2 30C576.5 32.1 577.2 34.5 577.2 37.3H579.2C579.2 34.2 578.4 31.4 576.9 29L575.2 30ZM578.2 36.2H576.3V38.2H578.2V36.2ZM577.3 37.2C577.3 33.1 575.8 29.7 572.7 27L571.4 28.5C574 30.8 575.3 33.7 575.3 37.2H577.3ZM572.7 27C569.7 24.3 565.8 23 561.1 23V25C565.4 25 568.8 26.2 571.4 28.5L572.7 27ZM561.1 23C556.5 23 552.6 24 549.6 26.2L550.8 27.8C553.4 25.9 556.8 25 561.1 25V23ZM549.6 26.2C546.6 28.4 545 31.1 545 34.5H547C547 31.8 548.2 29.6 550.7 27.8L549.6 26.2ZM545 34.6C545 38 546.3 40.7 549 42.8L550.2 41.2C548 39.5 547 37.3 547 34.6H545ZM549 42.8C551.6 44.8 555.7 46.5 561.3 48L561.8 46.1C556.3 44.7 552.5 43 550.2 41.3L549 42.8ZM561.4 47.9C566.9 49.3 570.8 50.9 573.3 52.7L574.5 51.1C571.8 49.1 567.6 47.4 562 45.9L561.4 47.9ZM573.2 52.8C576.2 55 577.7 58 577.7 61.7H579.7C579.7 57.3 577.9 53.8 574.4 51.2L573.2 52.8ZM577.7 61.7C577.7 64.1 577 66.2 575.7 68L577.3 69.2C578.9 67 579.7 64.5 579.7 61.8H577.7V61.7ZM575.7 67.9C574.4 69.7 572.5 71.1 569.9 72.1L570.6 74C573.4 72.9 575.6 71.2 577.2 69.1L575.7 67.9ZM570 72.2C567.5 73.2 564.6 73.7 561.4 73.7V75.7C564.8 75.7 568 75.1 570.8 74L570 72.2ZM561.4 73.7C557.8 73.7 554.6 73.1 551.8 71.9L551 73.7C554.1 75 557.6 75.6 561.4 75.6V73.7ZM551.8 72C549 70.8 546.9 69.2 545.6 67.1L543.9 68.2C545.5 70.7 547.9 72.5 551 73.8L551.8 72ZM545.5 67.1C544.1 65 543.4 62.5 543.4 59.6H541.4C541.4 62.9 542.2 65.7 543.8 68.2L545.5 67.1ZM542.5 60.6H544.4V58.6H542.5V60.6ZM543.4 59.6C543.4 64.1 545.1 67.7 548.5 70.2L549.7 68.6C546.8 66.5 545.4 63.5 545.4 59.6H543.4ZM548.5 70.1C551.9 72.6 556.2 73.8 561.4 73.8V71.8C556.5 71.8 552.6 70.7 549.7 68.5L548.5 70.1ZM561.4 73.8C566 73.8 569.9 72.7 573 70.6L571.9 69C569.2 70.9 565.7 71.9 561.4 71.9V73.8ZM573 70.6C576.1 68.4 577.8 65.4 577.8 61.8H575.8C575.8 64.7 574.5 67.1 571.9 69L573 70.6Z" fill="white"/>
<path d="M519 52.4L518.646 52.0464L519.327 52.7778L519 52.4ZM549.4 26.4L549 26.7L549.8 26.1L549.4 26.4ZM569.5 24.9L569.043 24.6969L569.947 25.1236L569.5 24.9ZM516 25.9L515.4 26.7L516.2 27.3L516.8 26.5L516 25.9ZM519.346 51.3464L518.646 52.0464L519.354 52.7535L520.054 52.0535L519.346 51.3464ZM518.346 70.5535L519.046 71.2535L519.754 70.5464L519.054 69.8464L518.346 70.5535ZM516.924 69.2292L517.624 70.0292L518.376 69.3707L517.676 68.5707L516.924 69.2292ZM517.146 51.6464L516.446 52.3464L517.154 53.0535L517.854 52.3535L517.146 51.6464ZM508.4 48.7V47.7H507.4V48.7H508.4ZM514.8 44.5L515.4 45.3L516.2 44.7L515.6 43.9L514.8 44.5ZM504.8 24.7V23.7H503.8V24.7H504.8ZM504.4 23.8V21.8H503.4V23.8H504.4ZM517.2 43.4L518.8 44.6L519.4 43.8L517.8 42.6L517.2 43.4ZM519.327 52.7778L520.827 51.4778L520.173 50.7221L518.673 52.0221L519.327 52.7778ZM522 60.4H524V59.4H522V60.4ZM506.4 73V75H507.4V73H506.4ZM522.1 59.5H520.1V60.5H522.1V59.5ZM507.4 47.7V49.7H508.4V47.7H507.4ZM505.1 47.8V45.8H504.1V47.8H505.1ZM519.7 35.2H517.7V36.2H519.7V35.2ZM503.8 23.7V25.7H504.8V23.7H503.8ZM574.9 55.8L574.1 56.4L574.7 57.2L575.5 56.6L574.9 55.8ZM569.963 51.9572L569.463 52.8572L570.337 53.3428L570.837 52.4428L569.963 51.9572ZM550.063 44.6572L549.563 45.5572L550.437 46.0428L550.937 45.1428L550.063 44.6572ZM548.4 25.9L549 26.7L549.8 26.1L549.2 25.3L548.4 25.9ZM569.443 23.7969L569.043 24.6969L569.957 25.1031L570.357 24.2031L569.443 23.7969ZM575.757 28.9629L574.857 29.4629L575.343 30.3371L576.243 29.8371L575.757 28.9629ZM571.646 27.4464L570.946 28.1464L571.654 28.8535L572.354 28.1535L571.646 27.4464ZM549.8 27.3L550.4 28.1L551.2 27.5L550.6 26.7L549.8 27.3ZM561.121 46.8563L560.821 47.8563L561.779 48.1436L562.079 47.1436L561.121 46.8563ZM573.4 51.7L572.8 52.5L573.6 53.1L574.2 52.3L573.4 51.7ZM576.2 68.9L577 69.5L577.6 68.7L576.8 68.1L576.2 68.9ZM550.943 72.6969L550.543 73.5969L551.457 74.0031L551.857 73.1031L550.943 72.6969ZM544.435 67.176L543.635 67.676L544.165 68.524L544.965 68.024L544.435 67.176ZM572 70L572.6 70.8L573.4 70.2L572.8 69.4L572 70ZM546.228 39.6802L544.528 40.7802L545.072 41.6198L546.772 40.5198L546.228 39.6802ZM549.8 26.1L548.6 24.5L547.8 25.1L549 26.7L549.8 26.1ZM561.6 23.1V21.1H560.6V23.1H561.6ZM569.947 25.1236L570.847 23.3236L569.953 22.8764L569.053 24.6764L569.947 25.1236ZM572.322 26.6725L571.022 28.1725L571.778 28.8274L573.078 27.3274L572.322 26.6725ZM560.6 23V25H561.6V23H560.6ZM573.412 70.3167L572.312 68.7167L571.488 69.2832L572.588 70.8832L573.412 70.3167ZM387 72.1H388V71.1H387V72.1ZM386 73.1H385V74.1H386V73.1ZM413.2 72.1H412.2V73.1H413.2V72.1ZM414.2 71.1H415.2V70.1H414.2V71.1ZM413.2 71.1V70.1H412.2V71.1H413.2ZM413.2 74V73H412.2V74H413.2ZM414.2 75V76H415.2V75H414.2ZM385 74H386V73H385V74ZM384 75H383V76H384V75ZM385 22.8V23.8H386V22.8H385ZM384 21.8V20.8H383V21.8H384ZM387 22.8H386V23.8H387V22.8ZM388 21.8H389V20.8H388V21.8ZM387 21.8V20.8H386V21.8H387ZM413.3 73.1V74.1H414.3V73.1H413.3ZM413.3 71.1H414.3V70.1H413.3V71.1ZM387 71.1V70.1H386V71.1H387ZM412.2 72.1V71.1H411.2V72.1H412.2ZM412.2 74H411.2V75H412.2V74ZM413.2 73H414.2V72H413.2V73ZM385 73V72H384V73H385ZM386 74V75H387V74H386ZM385 23.8H384V24.8H385V23.8ZM386.9 23.8V24.8H387.9V23.8H386.9ZM386.9 21.8H387.9V20.8H386.9V21.8ZM388 72.1V73.1H389V72.1H388ZM462.1 58.7H461.1V60.2387L462.506 59.6138L462.1 58.7ZM463 58.3L463.406 59.2138L464.236 58.845L463.949 57.9837L463 58.3ZM462.8 57.7L463.749 57.3837L463.521 56.7H462.8V57.7ZM437.1 58.7L436.784 59.6487L438.1 60.0874V58.7H437.1ZM437.1 57.7H438.1V56.7H437.1V57.7ZM436.4 57.7V56.7H435.646L435.438 57.4253L436.4 57.7ZM436.2 58.4L435.238 58.1253L434.975 59.0459L435.884 59.3487L436.2 58.4ZM431.4 74L431.716 73.0513L430.4 72.6125V74H431.4ZM432.1 75V76H432.854L433.062 75.2747L432.1 75ZM432.3 74.3L433.262 74.5747L433.525 73.6541L432.616 73.3513L432.3 74.3ZM429.3 74H430.3V73.3501L429.706 73.0862L429.3 74ZM428.4 73.6L428.806 72.6862L427.821 72.2483L427.458 73.2636L428.4 73.6ZM427.9 75L426.958 74.6636L426.481 76H427.9V75ZM448.5 22.8L448.094 23.7138L449.5 24.3387V22.8H448.5ZM447.8 21.8V20.8H447.079L446.851 21.4838L447.8 21.8ZM447.6 22.4L446.651 22.0838L446.364 22.9451L447.194 23.3138L447.6 22.4ZM450.8 22.8H449.8V24.3387L451.206 23.7138L450.8 22.8ZM451.7 22.4L452.106 23.3138L452.936 22.9451L452.649 22.0837L451.7 22.4ZM451.5 21.8L452.449 21.4837L452.221 20.8H451.5V21.8ZM469.9 74L469.494 73.0862L468.9 73.3501V74H469.9ZM471.3 75V76H472.719L472.242 74.6636L471.3 75ZM470.8 73.6L471.742 73.2636L471.379 72.2483L470.394 72.6862L470.8 73.6ZM467.9 74H468.9V72.4612L467.494 73.0862L467.9 74ZM467 74.4L466.594 73.4862L465.764 73.8549L466.051 74.7162L467 74.4ZM467.2 75L466.251 75.3162L466.479 76H467.2V75ZM467.9 75V76H468.9V75H467.9ZM437.8 56.8H438.8V56.1501L438.206 55.8862L437.8 56.8ZM436.9 56.4L435.963 56.0511L435.958 56.0636L436.9 56.4ZM436.4 57.8L435.458 57.4636L434.981 58.8H436.4V57.8ZM461.4 56.8L461.084 55.8513L460.4 56.0792V56.8H461.4ZM461.4 57.8H460.4V58.8H461.4V57.8ZM462.8 57.8V58.8H464.256L463.733 57.441L462.8 57.8ZM462.3 56.5L463.233 56.141L462.89 55.2491L461.984 55.5513L462.3 56.5ZM449.6 25.1L449.284 26.0487L449.6 26.1541L449.916 26.0487L449.6 25.1ZM450.5 24.8L450.816 25.7487L451.788 25.4248L451.441 24.4613L450.5 24.8ZM449.6 22.3L450.541 21.9613L449.6 19.3477L448.659 21.9613L449.6 22.3ZM448.7 24.8L447.759 24.4613L447.412 25.4248L448.384 25.7487L448.7 24.8ZM437 57.7V56.7H436V57.7H437ZM437 59.7H436V60.7H437V59.7ZM462.1 59.7V60.7H463.1V59.7H462.1ZM436.1 58.4L436.446 57.4616L435.511 57.1172L435.163 58.0509L436.1 58.4ZM430.4 73.7L429.463 73.3509L429.113 74.2914L430.054 74.6383L430.4 73.7ZM432.3 74.4L431.954 75.3383L432.889 75.6828L433.237 74.7491L432.3 74.4ZM438 59.1L438.937 59.4491L439.287 58.5086L438.346 58.1616L438 59.1ZM431.4 73H432.4V72H431.4V73ZM429.3 73V72H428.3V73H429.3ZM430.2 74.4L429.854 75.3383L430.787 75.682L431.136 74.7511L430.2 74.4ZM449.4 23.2L450.336 23.5511L450.689 22.6093L449.746 22.2616L449.4 23.2ZM447.5 22.5L447.846 21.5616L446.913 21.2179L446.564 22.1489L447.5 22.5ZM428.3 73.7L427.364 73.3489L427.01 74.2906L427.954 74.6383L428.3 73.7ZM448.5 23.8H447.5V24.8H448.5V23.8ZM450.8 23.8V24.8H451.8V23.8H450.8ZM449.8 23.2L449.454 22.2616L448.51 22.6093L448.864 23.5511L449.8 23.2ZM469 74.4L468.064 74.7511L468.413 75.682L469.346 75.3383L469 74.4ZM470.9 73.7L471.246 74.6383L472.189 74.2906L471.836 73.3489L470.9 73.7ZM451.7 22.5L452.636 22.1489L452.287 21.2179L451.354 21.5616L451.7 22.5ZM469.9 73H470.9V72H469.9V73ZM467.8 73V72H466.8V73H467.8ZM467.8 75H466.8V76H467.8V75ZM468.8 73.6L469.146 74.5383L470.087 74.1914L469.737 73.2509L468.8 73.6ZM463.1 58.3L464.037 57.9509L463.689 57.0172L462.754 57.3616L463.1 58.3ZM461.2 59L460.854 58.0616L459.913 58.4086L460.263 59.3491L461.2 59ZM466.9 74.3L465.963 74.6491L466.311 75.5828L467.246 75.2383L466.9 74.3ZM461.5 57.8V58.8H462.5V57.8H461.5ZM461.5 55.8H462.5V54.8H461.5V55.8ZM437.8 55.8V54.8H436.8V55.8H437.8ZM462.4 56.5L462.746 57.4383L463.687 57.0915L463.337 56.1511L462.4 56.5ZM450.6 24.8L451.537 24.4511L451.189 23.5171L450.254 23.8616L450.6 24.8ZM448.7 25.5L448.354 24.5616L447.413 24.9085L447.763 25.8488L448.7 25.5ZM460.5 57.2L459.563 57.5488L459.911 58.4829L460.846 58.1383L460.5 57.2ZM448.7 24.7L449.046 23.7616L448.111 23.4171L447.763 24.3511L448.7 24.7ZM438.8 57.1L438.454 58.0383L439.389 58.3829L439.737 57.4488L438.8 57.1ZM450.6 25.4L451.537 25.7488L451.887 24.8085L450.946 24.4616L450.6 25.4ZM490.4 74H491.4V73H490.4V74ZM489.4 75H488.4V76H489.4V75ZM490.4 22.8V23.8H491.4V22.8H490.4ZM489.4 21.8V20.8H488.4V21.8H489.4ZM515.8 27L515.172 27.7779L515.175 27.7808L515.8 27ZM511.6 47.5L512.595 47.5995L512.61 47.4506L512.581 47.3038L511.6 47.5ZM511.4 46.5L512.381 46.3038L510.401 46.5499L511.4 46.5ZM511.5 48.5L510.501 48.5499L510.543 49.3812L511.368 49.4912L511.5 48.5ZM492.3 48.7V49.7H493.3V48.7H492.3ZM492.3 47.7H493.3V46.7H492.3V47.7ZM491.3 47.7V46.7H490.3V47.7H491.3ZM492.3 72.1H493.3V71.1H492.3V72.1ZM491.3 73.1H490.3V74.1H491.3V73.1ZM518 69.7L517.244 70.3549L517.908 71.1201L518.664 70.4474L518 69.7ZM507.9 47.7L507.924 46.7003L507.912 46.7H507.9V47.7ZM492.3 46.8H493.3V45.8H492.3V46.8ZM491.3 47.8H490.3V48.8H491.3V47.8ZM504.3 23.7L504.32 22.7002L504.31 22.7H504.3V23.7ZM492.3 24.7V25.7H493.3V24.7H492.3ZM491.3 23.7V22.7H490.3V23.7H491.3ZM491.4 74V75H492.4V74H491.4ZM491.4 22.8H492.4V21.8H491.4V22.8ZM490.4 23.8H489.4V24.8H490.4V23.8ZM517 25.4L517.8 26L518.391 25.2121L517.612 24.6093L517 25.4ZM519.7 36H518.7V37H519.7V36ZM521.7 36V37H522.7V36H521.7ZM517.1 25.5L517.712 24.7093L516.964 24.13L516.344 24.845L517.1 25.5ZM519.6 35.9V34.9H518.6V35.9H519.6ZM519.1 44.2L518.309 43.5885L518.302 43.597L518.296 43.6056L519.1 44.2ZM521.7 35.9H522.7V34.9H521.7V35.9ZM511.5 46.5L511.311 45.518L510.322 45.7082L510.519 46.6961L511.5 46.5ZM511.9 48.5L510.919 48.6961L511.114 49.6706L512.09 49.4818L511.9 48.5ZM520.5 51.1L519.751 51.7625L519.757 51.7699L519.764 51.777L520.5 51.1ZM511.8 46.6L511.914 45.6064L510.962 45.4977L510.812 46.444L511.8 46.6ZM518.1 69.5L517.437 68.751L516.696 69.4069L517.344 70.1549L518.1 69.5ZM519.4 71L518.644 71.6549L519.301 72.4124L520.057 71.7541L519.4 71ZM518 69.5L518.756 68.8451L518.094 68.0816L517.337 68.751L518 69.5ZM519.3 71L519.969 71.7433L520.698 71.0867L520.056 70.3451L519.3 71ZM490.4 73V72H489.4V73H490.4ZM493.3 72.1V73.1H494.3V72.1H493.3ZM493.3 48.7H494.3V47.7H493.3V48.7ZM507.1 71.1H508.1V70.1H507.1V71.1ZM492.3 71.1V70.1H491.3V71.1H492.3ZM517.9 69.7L518.563 70.449L519.304 69.7931L518.656 69.045L517.9 69.7ZM516.6 68.2L517.356 67.545L516.702 66.7907L515.946 67.4432L516.6 68.2ZM507.1 71.2V70.2H506.1V71.2H507.1ZM516.7 68.2L516.027 67.46L515.305 68.1169L515.944 68.8549L516.7 68.2ZM518.2 51.3L518.846 50.5366L518.092 49.8982L517.444 50.645L518.2 51.3ZM516.9 52.8L516.144 52.145L515.488 52.902L516.246 53.5568L516.9 52.8ZM518.1 51.2L518.881 51.8247L519.475 51.0815L518.763 50.451L518.1 51.2ZM507.9 49.7L507.926 48.7003L507.913 48.7H507.9V49.7ZM516.9 52.7L516.246 53.4568L517.032 54.1355L517.681 53.3247L516.9 52.7ZM492.4 47.7V46.7H491.4V47.7H492.4ZM492.4 49.7H491.4V50.7H492.4V49.7ZM492.3 45.8V44.8H491.3V45.8H492.3ZM515.7 44.9L516.31 45.6926L517.093 45.0903L516.5 44.3L515.7 44.9ZM515.8 44.9L515.024 45.5306L515.627 46.2727L516.395 45.7035L515.8 44.9ZM515.7 26.8L516.314 26.0106L516.31 26.0074L515.7 26.8ZM504.3 25.7L504.321 24.7002L504.311 24.7H504.3V25.7ZM514.5 28.3L515.106 27.5045L515.097 27.4978L515.088 27.4912L514.5 28.3ZM492.3 25.7H491.3V26.7H492.3V25.7ZM493.3 46.8V47.8H494.3V46.8H493.3ZM493.3 24.7H494.3V23.7H493.3V24.7ZM550 45.8L549.138 45.293L548.622 46.1699L549.508 46.6705L550 45.8ZM549.4 26.4L549.987 27.2099L549.996 27.2034L550.004 27.1967L549.4 26.4ZM578.2 37.2V36.2H577.2V37.2H578.2ZM579.2 38.2V39.2H580.2V38.2H579.2ZM579.2 37.2H580.2V36.2H579.2V37.2ZM576.3 37.2H577.3V36.2H576.3V37.2ZM575.3 38.2H574.3V39.2H575.3V38.2ZM550.8 27.8L550 28.4L550.593 29.1901L551.39 28.6074L550.8 27.8ZM561.3 48L561.041 48.9659L562.011 49.2258L562.267 48.2545L561.3 48ZM573.2 52.8L572.4 52.2L571.794 53.0086L572.609 53.6064L573.2 52.8ZM551 73.8L550.613 74.7222L551.516 75.1008L551.914 74.2061L551 73.8ZM542.5 59.6V60.6H543.5V59.6H542.5ZM541.5 58.6V57.6H540.5V58.6H541.5ZM541.5 59.6H540.5V60.6H541.5V59.6ZM544.4 59.6H543.4V60.6H544.4V59.6ZM545.4 58.6H546.4V57.6H545.4V58.6ZM577.8 61.7V62.7H578.8V61.7H577.8ZM576.1 55.6L576.94 55.0567L576.381 54.1933L575.533 54.7759L576.1 55.6ZM574.5 56.7L573.933 55.8759L573.107 56.4443L573.678 57.2692L574.5 56.7ZM575.9 61.7H574.9V62.7H575.9V61.7ZM576.1 55.7L576.677 56.5169L577.461 55.9631L576.94 55.1567L576.1 55.7ZM570.9 51.4L571.363 50.5134L570.461 50.0428L570.006 50.9528L570.9 51.4ZM570 53.2L569.106 52.7528L568.667 53.6305L569.536 54.0858L570 53.2ZM574.4 56.9L573.532 57.3961L574.078 58.3515L574.977 57.7169L574.4 56.9ZM570.9 51.3L571.784 51.7679L572.255 50.8788L571.363 50.4134L570.9 51.3ZM560.8 47.6L561.083 46.641L560.095 46.349L559.833 47.3455L560.8 47.6ZM560.3 49.5L559.333 49.2455L559.081 50.204L560.037 50.4647L560.3 49.5ZM570 53L569.536 53.8858L570.418 54.3478L570.884 53.4679L570 53ZM560.8 47.7L561.754 48.0011L562.067 47.009L561.063 46.7352L560.8 47.7ZM560.2 49.6L559.937 50.5647L560.864 50.8176L561.154 49.9011L560.2 49.6ZM544.8 41.2L545.653 40.6785L545.643 40.6617L545.632 40.6453L544.8 41.2ZM550 45.9L549.508 46.7705L550.385 47.2662L550.874 46.3856L550 45.9ZM545.1 34.7H546.1V33.7H545.1V34.7ZM543.1 34.7V33.7H542.1V34.7H543.1ZM545.1 34.6V35.6H546.1V34.6H545.1ZM543.1 34.6H542.1V35.6H543.1V34.6ZM575.2 29.9L574.368 30.4547L574.892 31.2412L575.707 30.7619L575.2 29.9ZM576.9 28.9L577.407 29.7619L578.277 29.2505L577.758 28.3855L576.9 28.9ZM575.2 30L574.693 29.138L573.811 29.6566L574.35 30.5263L575.2 30ZM577.2 37.3H576.2V38.3H577.2V37.3ZM579.2 37.3V38.3H580.2V37.3H579.2ZM576.9 29L577.748 28.47L577.232 27.6445L576.393 28.138L576.9 29ZM578.2 36.2H579.2V35.2H578.2V36.2ZM576.3 36.2V35.2H575.3V36.2H576.3ZM577.3 37.2V38.2H578.3V37.2H577.3ZM572.7 27L572.031 27.7433L572.037 27.7487L572.043 27.7541L572.7 27ZM545 34.5H544V35.5H545V34.5ZM547 34.5V35.5H548V34.5H547ZM550.7 27.8L551.284 28.6115L552.078 28.0398L551.524 27.2334L550.7 27.8ZM545 34.6V33.6H544V34.6H545ZM549 42.8L548.386 43.5893L548.39 43.5926L549 42.8ZM550.2 41.2L551 41.8L551.591 41.0114L550.811 40.4087L550.2 41.2ZM547 34.6H548V33.6H547V34.6ZM561.8 46.1L562.767 46.3545L563.024 45.3796L562.047 45.1309L561.8 46.1ZM550.2 41.3L550.794 40.4958L550.02 39.9237L549.419 40.6753L550.2 41.3ZM561.4 47.9L560.442 47.6126L560.142 48.6118L561.153 48.8691L561.4 47.9ZM573.3 52.7L572.716 53.5115L573.512 54.0845L574.1 53.3L573.3 52.7ZM574.5 51.1L575.3 51.7L575.904 50.8952L575.095 50.2964L574.5 51.1ZM562 45.9L562.259 44.934L561.321 44.6829L561.042 45.6126L562 45.9ZM579.7 61.7V62.7H580.7V61.7H579.7ZM574.4 51.2L574.996 50.3972L574.197 49.8036L573.6 50.6L574.4 51.2ZM575.7 68L574.889 67.4145L574.314 68.2107L575.1 68.8L575.7 68ZM577.3 69.2L576.7 70L577.512 70.6089L578.109 69.7881L577.3 69.2ZM579.7 61.8H580.7V60.8H579.7V61.8ZM577.7 61.8H576.7V62.8H577.7V61.8ZM575.7 67.9L576.325 67.1191L575.504 66.4629L574.889 67.3145L575.7 67.9ZM569.9 72.1L569.541 71.1666L568.621 71.5205L568.962 72.4457L569.9 72.1ZM570.6 74L569.662 74.3457L570.015 75.3043L570.966 74.9307L570.6 74ZM577.2 69.1L577.995 69.706L578.587 68.9292L577.825 68.3191L577.2 69.1ZM570 72.2L570.914 71.7938L570.523 70.9139L569.629 71.2715L570 72.2ZM561.4 75.7H560.4V76.7H561.4V75.7ZM570.8 74L571.166 74.9307L572.138 74.5487L571.714 73.5938L570.8 74ZM551.8 71.9L552.194 70.9808L551.287 70.5921L550.886 71.4938L551.8 71.9ZM551 73.7L550.086 73.2938L549.671 74.2272L550.613 74.6222L551 73.7ZM561.4 75.6V76.6H562.4V75.6H561.4ZM551.8 72L552.714 72.4061L553.125 71.48L552.194 71.0808L551.8 72ZM545.6 67.1L546.45 66.5736L545.913 65.7062L545.057 66.2604L545.6 67.1ZM543.9 68.2L543.357 67.3604L542.521 67.901L543.058 68.739L543.9 68.2ZM545.5 67.1L546.043 67.9395L546.894 67.3888L546.332 66.5453L545.5 67.1ZM541.4 59.6V58.6H540.4V59.6H541.4ZM543.8 68.2L542.958 68.739L543.499 69.5855L544.343 69.0395L543.8 68.2ZM542.5 60.6H541.5V61.6H542.5V60.6ZM544.4 60.6V61.6H545.4V60.6H544.4ZM548.5 70.2L547.908 71.0056L548.706 71.5924L549.3 70.8L548.5 70.2ZM549.7 68.6L550.5 69.2L551.11 68.3865L550.287 67.79L549.7 68.6ZM548.5 70.1L547.7 69.5L547.094 70.3076L547.908 70.9056L548.5 70.1ZM561.4 71.8H562.4V70.8H561.4V71.8ZM549.7 68.5L550.304 67.7033L549.503 67.0956L548.9 67.9L549.7 68.5ZM573 70.6L573.561 71.4279L573.57 71.4218L573.579 71.4155L573 70.6ZM571.9 69L572.476 69.8178L572.483 69.8126L572.49 69.8074L571.9 69ZM561.4 71.9V70.9H560.4V71.9H561.4ZM577.8 61.8H578.8V60.8H577.8V61.8ZM575.8 61.8V60.8H574.8V61.8H575.8ZM387 71.1H386V73.1H387V71.1ZM385 72.1V73.1H387V72.1H385ZM386 74.1H387V72.1H386V74.1ZM388 73.1V72.1H386V73.1H388ZM413.2 73.1H414.2V71.1H413.2V73.1ZM415.2 72.1V71.1H413.2V72.1H415.2ZM414.2 70.1H413.2V72.1H414.2V70.1ZM412.2 71.1V72.1H414.2V71.1H412.2ZM412.2 74V75H414.2V74H412.2ZM413.2 76H414.2V74H413.2V76ZM415.2 75V74H413.2V75H415.2ZM414.2 73H413.2V75H414.2V73ZM385 73H384V75H385V73ZM383 74V75H385V74H383ZM384 76H385V74H384V76ZM386 75V74H384V75H386ZM386 22.8V21.8H384V22.8H386ZM385 20.8H384V22.8H385V20.8ZM383 21.8V22.8H385V21.8H383ZM384 23.8H385V21.8H384V23.8ZM387 23.8H388V21.8H387V23.8ZM389 22.8V21.8H387V22.8H389ZM388 20.8H387V22.8H388V20.8ZM386 21.8V22.8H388V21.8H386ZM387 74.1H413.3V72.1H387V74.1ZM414.3 73.1V71.1H412.3V73.1H414.3ZM413.3 70.1H387V72.1H413.3V70.1ZM386 71.1V73.1H388V71.1H386ZM411.2 72.1V74H413.2V72.1H411.2ZM412.2 75H414.2V73H412.2V75ZM415.2 74V72.1H413.2V74H415.2ZM414.2 71.1H412.2V73.1H414.2V71.1ZM413.2 72H385V74H413.2V72ZM384 73V75H386V73H384ZM385 76H413.2V74H385V76ZM414.2 75V73H412.2V75H414.2ZM387 74V22.8H385V74H387ZM386 21.8H384V23.8H386V21.8ZM383 22.8V74H385V22.8H383ZM384 75H386V73H384V75ZM385 24.8H386.9V22.8H385V24.8ZM387.9 23.8V21.8H385.9V23.8H387.9ZM386.9 20.8H385V22.8H386.9V20.8ZM384 21.8V23.8H386V21.8H384ZM385 22.8V72.1H387V22.8H385ZM386 73.1H388V71.1H386V73.1ZM389 72.1V22.8H387V72.1H389ZM388 21.8H386V23.8H388V21.8ZM462.506 59.6138L463.406 59.2138L462.594 57.3862L461.694 57.7862L462.506 59.6138ZM463.949 57.9837L463.749 57.3837L461.851 58.0162L462.051 58.6162L463.949 57.9837ZM462.8 56.7H462.1V58.7H462.8V56.7ZM461.1 57.7V58.7H463.1V57.7H461.1ZM438.1 58.7V57.7H436.1V58.7H438.1ZM437.1 56.7H436.4V58.7H437.1V56.7ZM435.438 57.4253L435.238 58.1253L437.162 58.6747L437.362 57.9747L435.438 57.4253ZM435.884 59.3487L436.784 59.6487L437.416 57.7513L436.516 57.4513L435.884 59.3487ZM430.4 74V75H432.4V74H430.4ZM431.4 76H432.1V74H431.4V76ZM433.062 75.2747L433.262 74.5747L431.338 74.0253L431.138 74.7253L433.062 75.2747ZM432.616 73.3513L431.716 73.0513L431.084 74.9487L431.984 75.2487L432.616 73.3513ZM429.706 73.0862L428.806 72.6862L427.994 74.5138L428.894 74.9138L429.706 73.0862ZM427.458 73.2636L426.958 74.6636L428.842 75.3363L429.342 73.9363L427.458 73.2636ZM427.9 76H429.3V74H427.9V76ZM430.3 75V74H428.3V75H430.3ZM449.5 22.8V21.8H447.5V22.8H449.5ZM448.5 20.8H447.8V22.8H448.5V20.8ZM446.851 21.4838L446.651 22.0838L448.549 22.7162L448.749 22.1162L446.851 21.4838ZM447.194 23.3138L448.094 23.7138L448.906 21.8862L448.006 21.4862L447.194 23.3138ZM451.206 23.7138L452.106 23.3138L451.294 21.4862L450.394 21.8862L451.206 23.7138ZM452.649 22.0837L452.449 21.4837L450.551 22.1162L450.751 22.7162L452.649 22.0837ZM451.5 20.8H450.8V22.8H451.5V20.8ZM449.8 21.8V22.8H451.8V21.8H449.8ZM468.9 74V75H470.9V74H468.9ZM469.9 76H471.3V74H469.9V76ZM472.242 74.6636L471.742 73.2636L469.858 73.9363L470.358 75.3363L472.242 74.6636ZM470.394 72.6862L469.494 73.0862L470.306 74.9138L471.206 74.5138L470.394 72.6862ZM467.494 73.0862L466.594 73.4862L467.406 75.3138L468.306 74.9138L467.494 73.0862ZM466.051 74.7162L466.251 75.3162L468.149 74.6837L467.949 74.0837L466.051 74.7162ZM467.2 76H467.9V74H467.2V76ZM468.9 75V74H466.9V75H468.9ZM438.206 55.8862L437.306 55.4862L436.494 57.3138L437.394 57.7138L438.206 55.8862ZM435.958 56.0636L435.458 57.4636L437.342 58.1363L437.842 56.7363L435.958 56.0636ZM436.4 58.8H437.8V56.8H436.4V58.8ZM438.8 57.8V56.8H436.8V57.8H438.8ZM460.4 56.8V57.8H462.4V56.8H460.4ZM461.4 58.8H462.8V56.8H461.4V58.8ZM463.733 57.441L463.233 56.141L461.367 56.859L461.867 58.159L463.733 57.441ZM461.984 55.5513L461.084 55.8513L461.716 57.7487L462.616 57.4487L461.984 55.5513ZM449.916 26.0487L450.816 25.7487L450.184 23.8513L449.284 24.1513L449.916 26.0487ZM451.441 24.4613L450.541 21.9613L448.659 22.6387L449.559 25.1387L451.441 24.4613ZM448.659 21.9613L447.759 24.4613L449.641 25.1387L450.541 22.6387L448.659 21.9613ZM448.384 25.7487L449.284 26.0487L449.916 24.1513L449.016 23.8513L448.384 25.7487ZM436 57.7V59.7H438V57.7H436ZM463.1 59.7V57.7H461.1V59.7H463.1ZM435.163 58.0509L429.463 73.3509L431.337 74.0491L437.037 58.7491L435.163 58.0509ZM430.054 74.6383L431.954 75.3383L432.646 73.4616L430.746 72.7616L430.054 74.6383ZM433.237 74.7491L438.937 59.4491L437.063 58.7509L431.363 74.0509L433.237 74.7491ZM438.346 58.1616L436.446 57.4616L435.754 59.3383L437.654 60.0383L438.346 58.1616ZM431.4 72H429.3V74H431.4V72ZM428.3 73V75H430.3V73H428.3ZM429.3 76H431.4V74H429.3V76ZM432.4 75V73H430.4V75H432.4ZM431.136 74.7511L450.336 23.5511L448.464 22.8489L429.264 74.0489L431.136 74.7511ZM449.746 22.2616L447.846 21.5616L447.154 23.4383L449.054 24.1383L449.746 22.2616ZM446.564 22.1489L427.364 73.3489L429.236 74.0511L448.436 22.8511L446.564 22.1489ZM427.954 74.6383L429.854 75.3383L430.546 73.4616L428.646 72.7616L427.954 74.6383ZM448.5 24.8H450.8V22.8H448.5V24.8ZM451.8 23.8V21.8H449.8V23.8H451.8ZM450.8 20.8H448.5V22.8H450.8V20.8ZM447.5 21.8V23.8H449.5V21.8H447.5ZM448.864 23.5511L468.064 74.7511L469.936 74.0489L450.736 22.8489L448.864 23.5511ZM469.346 75.3383L471.246 74.6383L470.554 72.7616L468.654 73.4616L469.346 75.3383ZM471.836 73.3489L452.636 22.1489L450.764 22.8511L469.964 74.0511L471.836 73.3489ZM451.354 21.5616L449.454 22.2616L450.146 24.1383L452.046 23.4383L451.354 21.5616ZM469.9 72H467.8V74H469.9V72ZM466.8 73V75H468.8V73H466.8ZM467.8 76H469.9V74H467.8V76ZM470.9 75V73H468.9V75H470.9ZM469.737 73.2509L464.037 57.9509L462.163 58.6491L467.863 73.9491L469.737 73.2509ZM462.754 57.3616L460.854 58.0616L461.546 59.9383L463.446 59.2383L462.754 57.3616ZM460.263 59.3491L465.963 74.6491L467.837 73.9509L462.137 58.6509L460.263 59.3491ZM467.246 75.2383L469.146 74.5383L468.454 72.6616L466.554 73.3616L467.246 75.2383ZM462.5 57.8V55.8H460.5V57.8H462.5ZM461.5 54.8H437.8V56.8H461.5V54.8ZM436.8 55.8V57.8H438.8V55.8H436.8ZM463.337 56.1511L451.537 24.4511L449.663 25.1488L461.463 56.8488L463.337 56.1511ZM450.254 23.8616L448.354 24.5616L449.046 26.4383L450.946 25.7383L450.254 23.8616ZM447.763 25.8488L459.563 57.5488L461.437 56.8511L449.637 25.1511L447.763 25.8488ZM460.846 58.1383L462.746 57.4383L462.054 55.5616L460.154 56.2616L460.846 58.1383ZM447.763 24.3511L435.963 56.0511L437.837 56.7488L449.637 25.0488L447.763 24.3511ZM436.554 57.3383L438.454 58.0383L439.146 56.1616L437.246 55.4616L436.554 57.3383ZM439.737 57.4488L451.537 25.7488L449.663 25.0511L437.863 56.7511L439.737 57.4488ZM450.946 24.4616L449.046 23.7616L448.354 25.6383L450.254 26.3383L450.946 24.4616ZM490.4 73H489.4V75H490.4V73ZM488.4 74V75H490.4V74H488.4ZM489.4 76H490.4V74H489.4V76ZM491.4 75V74H489.4V75H491.4ZM491.4 22.8V21.8H489.4V22.8H491.4ZM490.4 20.8H489.4V22.8H490.4V20.8ZM488.4 21.8V22.8H490.4V21.8H488.4ZM489.4 23.8H490.4V21.8H489.4V23.8ZM512.581 47.3038L512.381 46.3038L510.419 46.6961L510.619 47.6961L512.581 47.3038ZM510.401 46.5499L510.501 48.5499L512.499 48.45L512.399 46.45L510.401 46.5499ZM512.495 48.5995L512.595 47.5995L510.605 47.4005L510.505 48.4005L512.495 48.5995ZM493.3 48.7V47.7H491.3V48.7H493.3ZM492.3 46.7H491.3V48.7H492.3V46.7ZM490.3 47.7V48.7H492.3V47.7H490.3ZM491.3 49.7H492.3V47.7H491.3V49.7ZM492.3 71.1H491.3V73.1H492.3V71.1ZM490.3 72.1V73.1H492.3V72.1H490.3ZM491.3 74.1H492.3V72.1H491.3V74.1ZM493.3 73.1V72.1H491.3V73.1H493.3ZM492.3 45.8H491.3V47.8H492.3V45.8ZM490.3 46.8V47.8H492.3V46.8H490.3ZM491.3 48.8H492.3V46.8H491.3V48.8ZM493.3 47.8V46.8H491.3V47.8H493.3ZM493.3 24.7V23.7H491.3V24.7H493.3ZM492.3 22.7H491.3V24.7H492.3V22.7ZM490.3 23.7V24.7H492.3V23.7H490.3ZM491.3 25.7H492.3V23.7H491.3V25.7ZM492.4 74V22.8H490.4V74H492.4ZM491.4 21.8H489.4V23.8H491.4V21.8ZM488.4 22.8V74H490.4V22.8H488.4ZM489.4 75H491.4V73H489.4V75ZM490.4 24.8H503.9V22.8H490.4V24.8ZM503.9 20.8H490.4V22.8H503.9V20.8ZM489.4 21.8V23.8H491.4V21.8H489.4ZM503.9 24.8C509.187 24.8 512.822 25.8804 515.172 27.7779L516.428 26.222C513.578 23.9195 509.413 22.8 503.9 22.8V24.8ZM516.6 27.6L517.8 26L516.2 24.8L515 26.4L516.6 27.6ZM517.612 24.6093C514.274 22.0252 509.627 20.8 503.9 20.8V22.8C509.373 22.8 513.526 23.9748 516.388 26.1907L517.612 24.6093ZM515.175 27.7808C517.406 29.5651 518.7 32.1595 518.7 36H520.7C520.7 31.6404 519.194 28.4349 516.425 26.2191L515.175 27.7808ZM519.7 37H521.7V35H519.7V37ZM522.7 36C522.7 31.2648 521.11 27.3399 517.712 24.7093L516.488 26.2907C519.29 28.4601 520.7 31.7351 520.7 36H522.7ZM516.344 24.845L515.044 26.345L516.556 27.6549L517.856 26.1549L516.344 24.845ZM518.6 35.9C518.6 38.6434 517.939 40.8073 516.711 42.386L518.289 43.6139C519.861 41.5927 520.6 38.9565 520.6 35.9H518.6ZM519.891 44.8114C521.746 42.411 522.7 39.387 522.7 35.9H520.7C520.7 39.0129 519.854 41.5889 518.309 43.5885L519.891 44.8114ZM521.7 34.9H519.6V36.9H521.7V34.9ZM516.711 42.386C515.475 43.9741 513.7 45.0586 511.311 45.518L511.689 47.482C514.5 46.9413 516.725 45.6259 518.289 43.6139L516.711 42.386ZM510.519 46.6961L510.919 48.6961L512.881 48.3039L512.481 46.3039L510.519 46.6961ZM512.09 49.4818C515.397 48.8417 518.033 47.3258 519.904 44.7944L518.296 43.6056C516.767 45.6742 514.603 46.9582 511.71 47.5182L512.09 49.4818ZM511.368 49.4912C514.139 49.8606 516.422 51.0506 518.26 53.0726L519.74 51.7273C517.578 49.3494 514.861 47.9393 511.632 47.5087L511.368 49.4912ZM521.249 50.4374C518.783 47.6494 515.655 46.034 511.914 45.6064L511.686 47.5935C514.945 47.9659 517.617 49.3506 519.751 51.7625L521.249 50.4374ZM510.812 46.444L510.512 48.344L512.488 48.6559L512.788 46.7559L510.812 46.444ZM518.26 53.0726C520.104 55.101 521 57.3651 521 59.9H523C523 56.8349 521.896 54.0989 519.74 51.7273L518.26 53.0726ZM525 59.9C525 56.339 523.699 53.0999 521.236 50.4229L519.764 51.777C521.901 54.1001 523 56.861 523 59.9H525ZM521 59.9C521 63.7704 519.784 66.6755 517.437 68.751L518.763 70.249C521.616 67.7245 523 64.2295 523 59.9H521ZM517.344 70.1549L518.644 71.6549L520.156 70.345L518.856 68.845L517.344 70.1549ZM520.057 71.7541C523.416 68.8286 525 64.7303 525 59.9H523C523 64.2697 521.584 67.7713 518.743 70.2459L520.057 71.7541ZM517.337 68.751C514.973 70.843 511.636 72 506.9 72V74C511.964 74 515.827 72.757 518.663 70.249L517.337 68.751ZM506.9 76C512.259 76 516.729 74.6592 519.969 71.7433L518.631 70.2567C515.871 72.7407 511.941 74 506.9 74V76ZM520.056 70.3451L518.756 68.8451L517.244 70.1549L518.544 71.6549L520.056 70.3451ZM506.9 72H490.4V74H506.9V72ZM489.4 73V75H491.4V73H489.4ZM490.4 76H506.9V74H490.4V76ZM490.3 48.7V72.1H492.3V48.7H490.3ZM491.3 73.1H493.3V71.1H491.3V73.1ZM494.3 72.1V48.7H492.3V72.1H494.3ZM493.3 47.7H491.3V49.7H493.3V47.7ZM492.3 74.1H507.1V72.1H492.3V74.1ZM508.1 73.1V71.1H506.1V73.1H508.1ZM507.1 70.1H492.3V72.1H507.1V70.1ZM491.3 71.1V73.1H493.3V71.1H491.3ZM507.1 74.1C511.75 74.1 515.72 72.9638 518.563 70.449L517.237 68.951C514.88 71.0361 511.45 72.1 507.1 72.1V74.1ZM518.656 69.045L517.356 67.545L515.844 68.8549L517.144 70.3549L518.656 69.045ZM515.946 67.4432C513.972 69.1479 511.026 70.2 507.1 70.2V72.2C511.374 72.2 514.827 71.0521 517.254 68.9568L515.946 67.4432ZM506.1 71.2V73.1H508.1V71.2H506.1ZM518.664 70.4474C521.598 67.8395 523.1 64.3572 523.1 60H521.1C521.1 63.8428 519.802 66.7604 517.336 68.9526L518.664 70.4474ZM519.1 60C519.1 63.3387 518.004 65.6629 516.027 67.46L517.373 68.9399C519.796 66.737 521.1 63.8612 521.1 60H519.1ZM515.944 68.8549L517.244 70.3549L518.756 69.045L517.456 67.545L515.944 68.8549ZM523.1 60C523.1 56.2298 521.688 52.9416 518.846 50.5366L517.554 52.0634C519.912 54.0584 521.1 56.7701 521.1 60H523.1ZM517.444 50.645L516.144 52.145L517.656 53.4549L518.956 51.9549L517.444 50.645ZM516.246 53.5568C518.208 55.251 519.1 57.3655 519.1 60H521.1C521.1 56.8345 519.992 54.1489 517.554 52.0432L516.246 53.5568ZM518.763 50.451C515.936 47.9507 512.184 46.8042 507.924 46.7003L507.876 48.6997C511.816 48.7958 515.064 49.8492 517.437 51.949L518.763 50.451ZM507.874 50.6996C511.515 50.7954 514.269 51.7488 516.246 53.4568L517.554 51.9432C515.131 49.8511 511.885 48.8045 507.926 48.7003L507.874 50.6996ZM517.681 53.3247L518.881 51.8247L517.319 50.5753L516.119 52.0753L517.681 53.3247ZM507.9 46.7H492.4V48.7H507.9V46.7ZM491.4 47.7V49.7H493.4V47.7H491.4ZM492.4 50.7H507.9V48.7H492.4V50.7ZM492.3 48.8H504.6V46.8H492.3V48.8ZM504.6 44.8H492.3V46.8H504.6V44.8ZM491.3 45.8V47.8H493.3V45.8H491.3ZM504.6 48.8C509.501 48.8 513.459 47.8853 516.31 45.6926L515.09 44.1074C512.741 45.9146 509.299 46.8 504.6 46.8V48.8ZM516.5 44.3L515.3 42.7L513.7 43.9L514.9 45.5L516.5 44.3ZM513.894 42.5045C512.041 43.9161 508.996 44.8 504.6 44.8V46.8C509.204 46.8 512.759 45.8839 515.106 44.0954L513.894 42.5045ZM516.395 45.7035C519.434 43.4522 520.7 39.8942 520.7 35.7H518.7C518.7 39.5058 517.566 42.3477 515.205 44.0964L516.395 45.7035ZM516.7 35.7C516.7 39.0722 515.686 41.1395 513.894 42.5045L515.106 44.0954C517.514 42.2604 518.7 39.5278 518.7 35.7H516.7ZM513.724 43.9306L515.024 45.5306L516.576 44.2694L515.276 42.6694L513.724 43.9306ZM520.7 35.8C520.7 31.6515 519.301 28.3342 516.314 26.0106L515.086 27.5893C517.499 29.4658 518.7 32.1484 518.7 35.8H520.7ZM516.31 26.0074C513.466 23.8195 509.315 22.8021 504.32 22.7002L504.28 24.6998C509.085 24.7978 512.734 25.7804 515.09 27.5926L516.31 26.0074ZM504.279 26.6997C508.886 26.7978 511.948 27.6807 513.912 29.1087L515.088 27.4912C512.652 25.7193 509.114 24.8022 504.321 24.7002L504.279 26.6997ZM513.894 29.0954C515.693 30.4664 516.7 32.5399 516.7 35.7H518.7C518.7 32.0601 517.507 29.3335 515.106 27.5045L513.894 29.0954ZM518.7 35.7V35.8H520.7V35.7H518.7ZM504.3 22.7H492.3V24.7H504.3V22.7ZM491.3 23.7V25.7H493.3V23.7H491.3ZM492.3 26.7H504.3V24.7H492.3V26.7ZM490.3 24.7V46.8H492.3V24.7H490.3ZM491.3 47.8H493.3V45.8H491.3V47.8ZM494.3 46.8V24.7H492.3V46.8H494.3ZM493.3 23.7H491.3V25.7H493.3V23.7ZM577.2 37.2V38.2H579.2V37.2H577.2ZM578.2 39.2H579.2V37.2H578.2V39.2ZM580.2 38.2V37.2H578.2V38.2H580.2ZM579.2 36.2H578.2V38.2H579.2V36.2ZM576.3 36.2H575.3V38.2H576.3V36.2ZM574.3 37.2V38.2H576.3V37.2H574.3ZM575.3 39.2H576.3V37.2H575.3V39.2ZM577.3 38.2V37.2H575.3V38.2H577.3ZM543.5 59.6V58.6H541.5V59.6H543.5ZM542.5 57.6H541.5V59.6H542.5V57.6ZM540.5 58.6V59.6H542.5V58.6H540.5ZM541.5 60.6H542.5V58.6H541.5V60.6ZM544.4 60.6H545.4V58.6H544.4V60.6ZM546.4 59.6V58.6H544.4V59.6H546.4ZM545.4 57.6H544.4V59.6H545.4V57.6ZM543.4 58.6V59.6H545.4V58.6H543.4ZM578.8 61.7C578.8 59.2267 578.154 56.9342 576.94 55.0567L575.26 56.1432C576.246 57.6658 576.8 59.5733 576.8 61.7H578.8ZM575.533 54.7759L573.933 55.8759L575.067 57.524L576.667 56.424L575.533 54.7759ZM573.678 57.2692C574.445 58.3771 574.9 59.7709 574.9 61.7H576.9C576.9 59.4291 576.355 57.6229 575.322 56.1308L573.678 57.2692ZM575.9 62.7H577.8V60.7H575.9V62.7ZM576.94 55.1567C575.709 53.2544 573.741 51.7544 571.363 50.5134L570.437 52.2866C572.659 53.4456 574.291 54.7456 575.26 56.2432L576.94 55.1567ZM570.006 50.9528L569.106 52.7528L570.894 53.6472L571.794 51.8472L570.006 50.9528ZM569.536 54.0858C571.569 55.1509 572.871 56.2399 573.532 57.3961L575.268 56.4038C574.329 54.7601 572.631 53.4491 570.464 52.3141L569.536 54.0858ZM574.977 57.7169L576.677 56.5169L575.523 54.883L573.823 56.083L574.977 57.7169ZM571.363 50.4134C568.971 49.1654 565.491 47.9431 561.083 46.641L560.517 48.559C564.909 49.8568 568.229 51.0346 570.437 52.1866L571.363 50.4134ZM559.833 47.3455L559.333 49.2455L561.267 49.7545L561.767 47.8545L559.833 47.3455ZM560.037 50.4647C564.403 51.6556 567.526 52.833 569.536 53.8858L570.464 52.1141C568.274 50.9669 564.997 49.7444 560.563 48.5352L560.037 50.4647ZM570.884 53.4679L571.784 51.7679L570.016 50.8321L569.116 52.5321L570.884 53.4679ZM561.063 46.7352C556.696 45.5441 553.581 44.3685 551.479 43.2221L550.521 44.9779C552.819 46.2315 556.104 47.4558 560.537 48.6647L561.063 46.7352ZM550.138 43.593L549.138 45.293L550.862 46.307L551.862 44.607L550.138 43.593ZM549.508 46.6705C551.914 48.0307 555.507 49.3566 559.937 50.5647L560.463 48.6352C556.093 47.4434 552.686 46.1692 550.492 44.9294L549.508 46.6705ZM561.154 49.9011L561.754 48.0011L559.846 47.3989L559.246 49.2989L561.154 49.9011ZM551.496 43.2317C549.478 42.0783 548.137 40.884 547.357 39.5855L545.643 40.6145C546.663 42.316 548.322 43.7217 550.504 44.9682L551.496 43.2317ZM543.947 41.7214C545.159 43.7055 547.105 45.4125 549.508 46.7705L550.492 45.0294C548.295 43.7874 546.641 42.2944 545.653 40.6785L543.947 41.7214ZM550.874 46.3856L551.874 44.5856L550.126 43.6143L549.126 45.4143L550.874 46.3856ZM547.357 39.5855C546.557 38.2511 546.1 36.731 546.1 34.7H544.1C544.1 37.069 544.643 38.9489 545.643 40.6145L547.357 39.5855ZM545.1 33.7H543.1V35.7H545.1V33.7ZM542.1 34.7C542.1 37.328 542.625 39.7408 543.968 41.7547L545.632 40.6453C544.575 39.0591 544.1 37.072 544.1 34.7H542.1ZM546.1 34.6C546.1 31.5352 547.334 29.1305 549.987 27.2099L548.814 25.59C545.666 27.8694 544.1 30.8648 544.1 34.6H546.1ZM547.608 23.9943C543.964 26.6734 542.1 30.2665 542.1 34.6H544.1C544.1 30.9335 545.636 27.9265 548.792 25.6056L547.608 23.9943ZM543.1 35.6H545.1V33.6H543.1V35.6ZM550.004 27.1967C552.679 25.1676 556.343 24.1 561.1 24.1V22.1C556.057 22.1 551.921 23.2323 548.796 25.6033L550.004 27.1967ZM561.1 20.1C555.746 20.1 551.221 21.3372 547.608 23.9943L548.792 25.6056C551.979 23.2627 556.054 22.1 561.1 22.1V20.1ZM561.1 24.1C564.068 24.1 566.717 24.6736 569.067 25.8015L569.933 23.9985C567.283 22.7263 564.332 22.1 561.1 22.1V24.1ZM570.847 22.2055C567.879 20.7215 564.619 20.1 561.1 20.1V22.1C564.381 22.1 567.321 22.6784 569.953 23.9944L570.847 22.2055ZM569.067 25.8015C571.388 26.9157 573.057 28.4876 574.368 30.4547L576.032 29.3453C574.543 27.1124 572.612 25.2843 569.933 23.9985L569.067 25.8015ZM575.707 30.7619L577.407 29.7619L576.393 28.038L574.693 29.038L575.707 30.7619ZM577.758 28.3855C576.144 25.6966 573.788 23.6761 570.847 22.2055L569.953 23.9944C572.612 25.3239 574.656 27.1033 576.043 29.4145L577.758 28.3855ZM574.35 30.5263C575.548 32.4616 576.2 34.678 576.2 37.3H578.2C578.2 34.322 577.452 31.7384 576.05 29.4736L574.35 30.5263ZM577.2 38.3H579.2V36.3H577.2V38.3ZM580.2 37.3C580.2 34.0223 579.352 31.037 577.748 28.47L576.052 29.53C577.448 31.763 578.2 34.3776 578.2 37.3H580.2ZM576.393 28.138L574.693 29.138L575.707 30.8619L577.407 29.8619L576.393 28.138ZM578.2 35.2H576.3V37.2H578.2V35.2ZM575.3 36.2V38.2H577.3V36.2H575.3ZM576.3 39.2H578.2V37.2H576.3V39.2ZM579.2 38.2V36.2H577.2V38.2H579.2ZM578.3 37.2C578.3 32.8189 576.681 29.1411 573.357 26.2459L572.043 27.7541C574.919 30.2589 576.3 33.381 576.3 37.2H578.3ZM570.737 29.249C573.121 31.3574 574.3 33.9837 574.3 37.2H576.3C576.3 33.4162 574.879 30.2426 572.063 27.751L570.737 29.249ZM575.3 38.2H577.3V36.2H575.3V38.2ZM573.369 26.2567C570.148 23.3578 565.992 22 561.1 22V24C565.608 24 569.252 25.2421 572.031 27.7433L573.369 26.2567ZM561.1 26C565.203 26 568.353 27.1393 570.737 29.249L572.063 27.751C569.247 25.2606 565.597 24 561.1 24V26ZM561.1 22C556.363 22 552.232 23.0294 549.009 25.3936L550.191 27.0064C552.967 24.9705 556.637 24 561.1 24V22ZM548.8 26.8L550 28.4L551.6 27.2L550.4 25.6L548.8 26.8ZM551.39 28.6074C553.765 26.8719 556.934 26 561.1 26V24C556.666 24 553.035 24.928 550.21 26.9926L551.39 28.6074ZM549.009 25.3936C545.807 27.7412 544 30.7182 544 34.5H546C546 31.4817 547.393 29.0588 550.191 27.0064L549.009 25.3936ZM545 35.5H547V33.5H545V35.5ZM548 34.5C548 32.1651 549.008 30.2505 551.284 28.6115L550.116 26.9884C547.392 28.9494 546 31.4349 546 34.5H548ZM551.524 27.2334L550.424 25.6334L548.776 26.7665L549.876 28.3665L551.524 27.2334ZM544 34.6C544 38.3051 545.44 41.2978 548.386 43.5893L549.614 42.0106C547.16 40.1022 546 37.6948 546 34.6H544ZM549.8 43.4L551 41.8L549.4 40.6L548.2 42.2L549.8 43.4ZM550.811 40.4087C548.869 38.9081 548 37.007 548 34.6H546C546 37.5929 547.131 40.0919 549.589 41.9913L550.811 40.4087ZM547 33.6H545V35.6H547V33.6ZM548.39 43.5926C551.15 45.7154 555.405 47.4563 561.041 48.9659L561.559 47.034C555.995 45.5436 552.05 43.8845 549.61 42.0074L548.39 43.5926ZM562.267 48.2545L562.767 46.3545L560.833 45.8455L560.333 47.7455L562.267 48.2545ZM562.047 45.1309C556.609 43.7466 552.948 42.0876 550.794 40.4958L549.606 42.1042C552.052 43.9123 555.991 45.6533 561.553 47.0691L562.047 45.1309ZM549.419 40.6753L548.219 42.1753L549.781 43.4247L550.981 41.9247L549.419 40.6753ZM561.153 48.8691C566.609 50.2579 570.367 51.8201 572.716 53.5115L573.884 51.8884C571.233 49.9798 567.191 48.3421 561.647 46.9309L561.153 48.8691ZM574.1 53.3L575.3 51.7L573.7 50.5L572.5 52.1L574.1 53.3ZM575.095 50.2964C572.241 48.182 567.893 46.4432 562.259 44.934L561.741 46.8659C567.307 48.3568 571.359 50.0179 573.905 51.9035L575.095 50.2964ZM561.042 45.6126L560.442 47.6126L562.358 48.1873L562.958 46.1873L561.042 45.6126ZM572.609 53.6064C575.349 55.6162 576.7 58.3155 576.7 61.7H578.7C578.7 57.6845 577.051 54.3837 573.791 51.9936L572.609 53.6064ZM577.7 62.7H579.7V60.7H577.7V62.7ZM580.7 61.7C580.7 56.9785 578.746 53.1829 574.996 50.3972L573.804 52.0027C577.054 54.4171 578.7 57.6214 578.7 61.7H580.7ZM573.6 50.6L572.4 52.2L574 53.4L575.2 51.8L573.6 50.6ZM576.7 61.7C576.7 63.8922 576.065 65.7869 574.889 67.4145L576.511 68.5855C577.935 66.6131 578.7 64.3077 578.7 61.7H576.7ZM575.1 68.8L576.7 70L577.9 68.4L576.3 67.2L575.1 68.8ZM578.109 69.7881C579.834 67.4152 580.7 64.7088 580.7 61.8H578.7C578.7 64.2911 577.965 66.5847 576.491 68.6118L578.109 69.7881ZM579.7 60.8H577.7V62.8H579.7V60.8ZM578.7 61.8V61.7H576.7V61.8H578.7ZM574.889 67.3145C573.724 68.9276 571.997 70.222 569.541 71.1666L570.259 73.0333C573.003 71.978 575.076 70.4723 576.511 68.4855L574.889 67.3145ZM568.962 72.4457L569.662 74.3457L571.538 73.6543L570.838 71.7543L568.962 72.4457ZM570.966 74.9307C573.931 73.7656 576.282 71.9554 577.995 69.706L576.405 68.4939C574.918 70.4446 572.869 72.0343 570.234 73.0692L570.966 74.9307ZM577.825 68.3191L576.325 67.1191L575.075 68.6808L576.575 69.8808L577.825 68.3191ZM569.629 71.2715C567.268 72.2156 564.498 72.7 561.4 72.7V74.7C564.702 74.7 567.732 74.1844 570.371 73.1285L569.629 71.2715ZM560.4 73.7V75.7H562.4V73.7H560.4ZM561.4 76.7C564.916 76.7 568.241 76.0797 571.166 74.9307L570.434 73.0692C567.759 74.1202 564.684 74.7 561.4 74.7V76.7ZM571.714 73.5938L570.914 71.7938L569.086 72.6061L569.886 74.4061L571.714 73.5938ZM561.4 72.7C557.911 72.7 554.849 72.1187 552.194 70.9808L551.406 72.8191C554.351 74.0813 557.689 74.7 561.4 74.7V72.7ZM550.886 71.4938L550.086 73.2938L551.914 74.1061L552.714 72.3061L550.886 71.4938ZM550.613 74.6222C553.86 75.9838 557.497 76.6 561.4 76.6V74.6C557.703 74.6 554.34 74.0162 551.387 72.7778L550.613 74.6222ZM562.4 75.6V73.7H560.4V75.6H562.4ZM552.194 71.0808C549.519 69.9344 547.611 68.4479 546.45 66.5736L544.75 67.6263C546.189 69.952 548.481 71.6656 551.406 72.9191L552.194 71.0808ZM545.057 66.2604L543.357 67.3604L544.443 69.0395L546.143 67.9395L545.057 66.2604ZM543.058 68.739C544.794 71.4515 547.377 73.3651 550.613 74.7222L551.387 72.8778C548.423 71.6348 546.206 69.9485 544.742 67.6609L543.058 68.739ZM551.914 74.2061L552.714 72.4061L550.886 71.5938L550.086 73.3938L551.914 74.2061ZM546.332 66.5453C545.057 64.633 544.4 62.3328 544.4 59.6H542.4C542.4 62.6671 543.143 65.3669 544.668 67.6547L546.332 66.5453ZM543.4 58.6H541.4V60.6H543.4V58.6ZM540.4 59.6C540.4 63.0755 541.247 66.0655 542.958 68.739L544.642 67.6609C543.153 65.3345 542.4 62.7245 542.4 59.6H540.4ZM544.343 69.0395L546.043 67.9395L544.957 66.2604L543.257 67.3604L544.343 69.0395ZM542.5 61.6H544.4V59.6H542.5V61.6ZM545.4 60.6V58.6H543.4V60.6H545.4ZM544.4 57.6H542.5V59.6H544.4V57.6ZM541.5 58.6V60.6H543.5V58.6H541.5ZM542.4 59.6C542.4 64.3848 544.226 68.2983 547.908 71.0056L549.092 69.3943C545.974 67.1016 544.4 63.8151 544.4 59.6H542.4ZM549.3 70.8L550.5 69.2L548.9 68L547.7 69.6L549.3 70.8ZM550.287 67.79C547.68 65.9025 546.4 63.2233 546.4 59.6H544.4C544.4 63.7767 545.92 67.0975 549.114 69.4099L550.287 67.79ZM545.4 58.6H543.4V60.6H545.4V58.6ZM547.908 70.9056C551.521 73.5627 556.046 74.8 561.4 74.8V72.8C556.354 72.8 552.279 71.6372 549.092 69.2943L547.908 70.9056ZM562.4 73.8V71.8H560.4V73.8H562.4ZM561.4 70.8C556.643 70.8 552.979 69.7323 550.304 67.7033L549.096 69.2967C552.221 71.6676 556.357 72.8 561.4 72.8V70.8ZM548.9 67.9L547.7 69.5L549.3 70.7L550.5 69.1L548.9 67.9ZM561.4 74.8C566.161 74.8 570.265 73.6603 573.561 71.4279L572.439 69.7721C569.535 71.7397 565.84 72.8 561.4 72.8V74.8ZM571.325 68.1822C568.831 69.9371 565.546 70.9 561.4 70.9V72.9C565.855 72.9 569.569 71.8629 572.476 69.8178L571.325 68.1822ZM560.4 71.9V73.8H562.4V71.9H560.4ZM573.579 71.4155C576.909 69.0517 578.8 65.763 578.8 61.8H576.8C576.8 65.0369 575.291 67.7482 572.421 69.7845L573.579 71.4155ZM577.8 60.8H575.8V62.8H577.8V60.8ZM574.8 61.8C574.8 64.3422 573.685 66.4568 571.31 68.1926L572.49 69.8074C575.315 67.7431 576.8 65.0578 576.8 61.8H574.8ZM437.8 58.8H449.65V56.8H437.8V58.8ZM449.65 58.8H461.5V56.8H449.65V58.8ZM462.1 56.7H449.55V58.7H462.1V56.7ZM449.55 56.7H437V58.7H449.55V56.7ZM437 60.7H449.55V58.7H437V60.7ZM449.55 60.7H462.1V58.7H449.55V60.7Z" fill="#A5A6F6" mask="url(#path-1-outside-1_301_35)"/>
<path d="M166 23H195.6V25.9H169.1V47.1H192.2V50H169.1V71.6H196.3V74.5H166V23Z" fill="#5D5FEF"/>
<path d="M247.2 25.9H229.7V74.5H226.6V25.9H209.1V23H247.2V25.9Z" fill="#5D5FEF"/>
<path d="M264.6 23H267.7V47.1H300.4V23H303.5V74.4H300.4V49.9H267.7V74.4H264.6V23Z" fill="#5D5FEF"/>
<path d="M355.5 59.1H330.1L324.2 74.4H321L340.9 23H344.7L364.8 74.4H361.5L355.5 59.1ZM354.3 56.3L342.7 26.5L331.2 56.3H354.3Z" fill="#5D5FEF"/>
<path d="M102.5 59.4L27.7 24.5V0L102.6 34.9V59.4H102.5Z" fill="#373AA7"/>
<path d="M27.7 93.6L102.6 59.1V35L27.7 69.4V93.6Z" fill="#373AA7"/>
<path d="M122.3 24.4H27.7V0H131L122.3 24.4Z" fill="#5D5FEF"/>
<path d="M102.5 59.4H8.7L0 34.2H102.5V59.4Z" fill="#5D5FEF"/>
<path d="M122.3 93.6H27.7V69.2H131L122.3 93.6Z" fill="#5D5FEF"/>
</svg>
